<svg width="32" height="33" viewBox="0 0 32 33" fill="none" xmlns="http://www.w3.org/2000/svg">
<circle cx="16" cy="16.5" r="16" fill="white"/>
<path fill-rule="evenodd" clip-rule="evenodd" d="M19.9594 6.21597C19.9594 7.19118 19.5287 8.16639 18.9208 8.87004C18.2747 9.6478 17.1601 10.228 16.2734 10.2281C16.1721 10.2281 16.0707 10.2157 16.0074 10.2034C15.9948 10.154 15.9694 10.0058 15.9694 9.85768C15.9694 8.87004 16.4888 7.89483 17.0461 7.2776C17.7554 6.47522 18.9334 5.8703 19.9214 5.83325C19.9468 5.94441 19.9594 6.08019 19.9594 6.21597ZM23.444 12.359C23.4686 12.3433 23.4855 12.3325 23.4934 12.3265C22.1761 10.4872 20.1747 10.4377 19.6173 10.4376C18.7656 10.4376 18.0033 10.7321 17.3624 10.9797C16.8977 11.1592 16.4968 11.3141 16.172 11.3141C15.8137 11.3141 15.4034 11.1525 14.9456 10.9722C14.3676 10.7445 13.7137 10.487 12.9928 10.487C10.5609 10.487 8.0909 12.4498 8.0909 16.1532C8.0909 18.4616 9.00286 20.8935 10.1302 22.4613C11.1054 23.7945 11.9541 24.8809 13.1701 24.8809C13.7468 24.8809 14.1696 24.706 14.6142 24.522C15.1072 24.3181 15.6269 24.1031 16.4128 24.1031C17.2063 24.1031 17.6806 24.305 18.1382 24.4996C18.5644 24.681 18.976 24.8561 19.6174 24.8561C20.9473 24.8561 21.8214 23.6835 22.6573 22.5107C23.5947 21.1775 23.9874 19.8689 24 19.8072C23.924 19.7826 21.378 18.7827 21.378 15.9558C21.378 13.6805 23.1123 12.5711 23.444 12.359Z" fill="black"/>
</svg>
