<svg width="24" height="24" viewBox="0 0 24 24" fill="none" xmlns="http://www.w3.org/2000/svg">
<g clip-path="url(#clip0_38_320)">
<path d="M22.1988 18.498L12.4289 24.0002V19.7147L18.5161 16.3809L22.1988 18.498ZM22.8671 17.8954V6.38838L19.2919 8.44278V15.8388L22.8671 17.8954ZM1.80136 18.498L11.5713 24.0002V19.7147L5.48406 16.3809L1.80136 18.498ZM1.13306 17.8954V6.38838L4.70816 8.44278V15.8388L1.13306 17.8954ZM1.55136 5.64388L11.5713 -0.00012207V4.14328L5.15206 7.65858L5.10316 7.68658L1.55136 5.64388ZM22.4489 5.64388L12.4289 -0.00012207V4.14328L18.8481 7.65868L18.897 7.68668L22.4489 5.64388ZM11.5714 18.7399L5.56576 15.4526V8.93838L11.5712 12.3909L11.5714 18.7399ZM12.4289 18.7399L18.4342 15.4526V8.93838L12.4289 12.3909V18.7399ZM5.97246 8.18448L12.0012 4.88298L18.0301 8.18448L12.0013 11.651L5.97246 8.18448Z" fill="black"/>
</g>
<defs>
<clipPath id="clip0_38_320">
<rect width="24" height="24" fill="white"/>
</clipPath>
</defs>
</svg>
