<svg width="32" height="33" viewBox="0 0 32 33" fill="none" xmlns="http://www.w3.org/2000/svg">
<circle cx="16" cy="16.5" r="16" fill="white"/>
<path fill-rule="evenodd" clip-rule="evenodd" d="M24.3115 9.60985C25.2289 9.85161 25.9546 10.5635 26.2011 11.4633C26.653 13.1019 26.6667 16.5 26.6667 16.5C26.6667 16.5 26.6667 19.9114 26.2148 21.5366C25.9683 22.4365 25.2426 23.1483 24.3252 23.3901C22.6684 23.8333 16 23.8333 16 23.8333C16 23.8333 9.33162 23.8333 7.6748 23.3901C6.75738 23.1483 6.03166 22.4365 5.78519 21.5366C5.33333 19.898 5.33333 16.5 5.33333 16.5C5.33333 16.5 5.33333 13.1019 5.7715 11.4768C6.01797 10.5769 6.74369 9.86504 7.6611 9.62328C9.31793 9.18006 15.9863 9.16663 15.9863 9.16663C15.9863 9.16663 22.6547 9.16663 24.3115 9.60985ZM19.3958 16.5L13.8639 19.6428V13.3571L19.3958 16.5Z" fill="#FF0000"/>
</svg>
